<svg width="35" height="26" viewBox="0 0 35 26" fill="none" xmlns="http://www.w3.org/2000/svg">
<path d="M33.2049 12.4858C33.0271 11.9523 32.6999 10.9922 31.7824 10.3521C30.6729 9.58393 29.2006 9.63371 28.9375 9.64083C28.3969 9.66216 28.0982 9.75462 27.515 9.64083C27.1025 9.55548 26.4268 9.42745 26.0925 8.92959C25.808 8.50996 25.9859 8.16146 26.0925 6.79589C26.1779 5.72192 26.2135 5.18139 26.0925 4.66218C25.8294 3.53843 25.0328 2.84142 24.6701 2.52848C23.9233 1.87414 22.9773 1.41895 21.1139 1.10601C19.8195 0.885528 17.7355 0.67927 14.7128 1.10601C13.1836 1.31938 10.8294 1.72478 9.02291 2.32933C7.76403 2.74185 6.3629 3.33217 4.75551 4.46304C4.74128 4.47015 4.72706 4.47726 4.71995 4.48438C2.2733 6.07754 0.886391 8.89403 1.0073 11.8172C1.65452 27.5141 30.047 29.4914 33.2049 16.0419C33.2689 15.6152 33.7668 14.1572 33.2049 12.4858ZM18.4183 8.30371C17.8977 8.30371 17.3984 8.09689 17.0303 7.72875C16.6621 7.36062 16.4553 6.86132 16.4553 6.3407C16.4553 5.25251 17.3301 4.37769 18.4183 4.37769H20.3458C20.8664 4.37769 21.3657 4.58451 21.7338 4.95264C22.102 5.32078 22.3088 5.82008 22.3088 6.3407C22.3088 6.86132 22.102 7.36062 21.7338 7.72875C21.3657 8.09689 20.8664 8.30371 20.3458 8.30371H18.4183Z" fill="white"/>
<path d="M5.46671 12.4862C6.64512 12.4862 7.60042 11.5309 7.60042 10.3525C7.60042 9.17404 6.64512 8.21875 5.46671 8.21875C4.2883 8.21875 3.33301 9.17404 3.33301 10.3525C3.33301 11.5309 4.2883 12.4862 5.46671 12.4862Z" fill="#89D2FF"/>
<path d="M9.02286 18.8865C10.2013 18.8865 11.1566 17.9313 11.1566 16.7528C11.1566 15.5744 10.2013 14.6191 9.02286 14.6191C7.84445 14.6191 6.88916 15.5744 6.88916 16.7528C6.88916 17.9313 7.84445 18.8865 9.02286 18.8865Z" fill="#38C74F"/>
<path d="M16.1352 21.0213C17.3136 21.0213 18.2689 20.066 18.2689 18.8876C18.2689 17.7092 17.3136 16.7539 16.1352 16.7539C14.9568 16.7539 14.0015 17.7092 14.0015 18.8876C14.0015 20.066 14.9568 21.0213 16.1352 21.0213Z" fill="#FCEA2B"/>
<path d="M23.248 20.3094C24.4264 20.3094 25.3817 19.3541 25.3817 18.1757C25.3817 16.9973 24.4264 16.042 23.248 16.042C22.0695 16.042 21.1143 16.9973 21.1143 18.1757C21.1143 19.3541 22.0695 20.3094 23.248 20.3094Z" fill="#D83F38"/>
<path d="M33.2049 12.4858C33.0271 11.9523 32.6999 10.9922 31.7824 10.3521C30.6729 9.58393 29.2006 9.63371 28.9375 9.64083C28.3969 9.66216 28.0982 9.75462 27.515 9.64083C27.1025 9.55548 26.4268 9.42745 26.0925 8.92959C25.808 8.50996 25.9859 8.16146 26.0925 6.79589C26.1779 5.72192 26.2135 5.18138 26.0925 4.66218C25.8294 3.53843 25.0328 2.84142 24.6701 2.52848C23.9233 1.87414 22.9773 1.41895 21.1139 1.10601C19.8195 0.885528 17.7355 0.67927 14.7128 1.10601C13.1836 1.31938 10.8294 1.72478 9.02291 2.32933C7.76403 2.74185 6.3629 3.33217 4.75551 4.46304C4.74128 4.47015 4.72706 4.47726 4.71995 4.48437C2.2733 6.07754 0.886391 8.89403 1.0073 11.8172C1.65452 27.5141 30.047 29.4914 33.2049 16.0419C33.2689 15.6152 33.7668 14.1572 33.2049 12.4858ZM18.4183 8.3037C17.8977 8.3037 17.3984 8.09689 17.0303 7.72875C16.6621 7.36062 16.4553 6.86132 16.4553 6.3407C16.4553 5.25251 17.3301 4.37769 18.4183 4.37769H20.3458C20.8664 4.37769 21.3657 4.58451 21.7338 4.95264C22.102 5.32078 22.3088 5.82008 22.3088 6.3407C22.3088 6.86132 22.102 7.36062 21.7338 7.72875C21.3657 8.09689 20.8664 8.3037 20.3458 8.3037H18.4183Z" stroke="black" stroke-width="1.42247" stroke-miterlimit="10" stroke-linecap="round" stroke-linejoin="round"/>
<path d="M5.46671 12.4862C6.64512 12.4862 7.60042 11.5309 7.60042 10.3525C7.60042 9.17404 6.64512 8.21875 5.46671 8.21875C4.2883 8.21875 3.33301 9.17404 3.33301 10.3525C3.33301 11.5309 4.2883 12.4862 5.46671 12.4862Z" stroke="black" stroke-width="1.42247" stroke-miterlimit="10"/>
<path d="M9.02286 18.8865C10.2013 18.8865 11.1566 17.9313 11.1566 16.7528C11.1566 15.5744 10.2013 14.6191 9.02286 14.6191C7.84445 14.6191 6.88916 15.5744 6.88916 16.7528C6.88916 17.9313 7.84445 18.8865 9.02286 18.8865Z" stroke="black" stroke-width="1.42247" stroke-miterlimit="10" stroke-linecap="round" stroke-linejoin="round"/>
<path d="M16.1352 21.0213C17.3136 21.0213 18.2689 20.066 18.2689 18.8876C18.2689 17.7092 17.3136 16.7539 16.1352 16.7539C14.9568 16.7539 14.0015 17.7092 14.0015 18.8876C14.0015 20.066 14.9568 21.0213 16.1352 21.0213Z" stroke="black" stroke-width="1.42247" stroke-miterlimit="10"/>
<path d="M23.248 20.3094C24.4264 20.3094 25.3817 19.3541 25.3817 18.1757C25.3817 16.9973 24.4264 16.042 23.248 16.042C22.0695 16.042 21.1143 16.9973 21.1143 18.1757C21.1143 19.3541 22.0695 20.3094 23.248 20.3094Z" stroke="black" stroke-width="1.42247" stroke-miterlimit="10"/>
</svg>
